<?xml version="1.0" encoding="UTF-8" standalone="no"?>
<!-- Generator: Adobe Illustrator 24.1.3, SVG Export Plug-In . SVG Version: 6.00 Build 0)  -->

<svg
   version="1.1"
   id="Layer_1"
   x="0px"
   y="0px"
   viewBox="0 0 330.51508 157.52723"
   xml:space="preserve"
   sodipodi:docname="riscv-color.svg"
   inkscape:version="1.2.1 (9c6d41e410, 2022-07-14)"
   width="330.51508"
   height="157.52724"
   inkscape:export-filename="riscv-color.png"
   inkscape:export-xdpi="96"
   inkscape:export-ydpi="96"
   xmlns:inkscape="http://www.inkscape.org/namespaces/inkscape"
   xmlns:sodipodi="http://sodipodi.sourceforge.net/DTD/sodipodi-0.dtd"
   xmlns="http://www.w3.org/2000/svg"
   xmlns:svg="http://www.w3.org/2000/svg"><defs
   id="defs31">
		
		
		
		
		
		
		
		
	</defs><sodipodi:namedview
   id="namedview29"
   pagecolor="#ffffff"
   bordercolor="#000000"
   borderopacity="0.25"
   inkscape:showpageshadow="2"
   inkscape:pageopacity="0.0"
   inkscape:pagecheckerboard="0"
   inkscape:deskcolor="#d1d1d1"
   showgrid="false"
   inkscape:zoom="1.8237338"
   inkscape:cx="145.58046"
   inkscape:cy="47.704331"
   inkscape:window-width="1920"
   inkscape:window-height="1017"
   inkscape:window-x="1912"
   inkscape:window-y="-8"
   inkscape:window-maximized="1"
   inkscape:current-layer="Layer_1" />
<style
   type="text/css"
   id="style2">
	.st0{fill:#F5B21B;}
	.st1{fill:#283272;}
</style>
<g
   id="g26"
   transform="translate(172.51509)">
	<path
   class="st0"
   d="M 88,49.2 C 88,72.1 74.1,92.8 47.1,97.7 l 38.1,45 3.4,-4.8 68.6,-97 V 0 H 45.7 C 74.1,2.8 88,26.3 88,49.2 Z"
   id="path4" /><path
   class="st1"
   d="M 9.7,78.977867 H 36 c 19.4,0 29.1,-13.443351 29.1,-26.984118 C 65.1,38.452983 55.4,25.691541 36,25.691541 H 0 V 157.3 H 67.2 L 9.7,89.790997 Z M 107.4,150.48091 158,81.608088 v 75.594492 h -55.6 z"
   id="path6"
   style="stroke-width:0.986993" />
	
</g>
<g
   id="g1027"
   transform="translate(-97.72908,0.03894486)"
   style="fill:#da0066;fill-opacity:1"><rect
     style="fill:#da0066;fill-opacity:1;stroke-width:1.14489"
     id="rect368"
     width="27.52846"
     height="103.46941"
     x="242.69289"
     y="53.791637" /><rect
     style="fill:#da0066;fill-opacity:1;stroke-width:1.2775"
     id="rect370"
     width="47.899414"
     height="27.945757"
     x="194.76453"
     y="25.894583" /><rect
     style="fill:#da0066;fill-opacity:1;stroke-width:1.29475"
     id="rect370-0"
     width="49.201687"
     height="27.945757"
     x="194.84224"
     y="79.588158" /><rect
     style="fill:#da0066;fill-opacity:1;stroke-width:0.571066"
     id="rect368-0"
     width="27.52846"
     height="25.742926"
     x="242.66812"
     y="0.060001161" /></g><g
   id="g1031"
   transform="matrix(1,0,0,1.004113,-97.72908,-0.23677948)"
   style="fill:#da0066;fill-opacity:1"><rect
     style="fill:#da0066;fill-opacity:1;stroke-width:1.25514"
     id="rect394"
     width="103.09786"
     height="21.096689"
     x="144.83459"
     y="135.90649" /><rect
     style="fill:#da0066;fill-opacity:1;stroke-width:1.09388"
     id="rect396"
     width="23.651211"
     height="54.281471"
     x="144.5477"
     y="12.75595" /></g><g
   id="g1036"
   transform="translate(-97.72908,0.03894486)"
   style="fill:#da0066;fill-opacity:1"><rect
     style="fill:#da0066;fill-opacity:1;stroke-width:0.988657"
     id="rect398"
     width="23.263487"
     height="50.404221"
     x="144.74156"
     y="106.98418" /><rect
     style="fill:#da0066;fill-opacity:1;stroke-width:1.30758"
     id="rect400"
     width="46.86623"
     height="12.504106"
     x="97.72908"
     y="0.039707314" /><rect
     style="fill:#da0066;fill-opacity:1;stroke-width:1.07638"
     id="rect402"
     width="18.61079"
     height="157.22475"
     x="97.746658"
     y="0.26354328" /></g></svg>
